<?xml version="1.0" standalone="no"?>
<!DOCTYPE svg PUBLIC "-//W3C//DTD SVG 20010904//EN"
 "http://www.w3.org/TR/2001/REC-SVG-20010904/DTD/svg10.dtd">
<svg version="1.0" xmlns="http://www.w3.org/2000/svg"
 width="512.000000pt" height="440.000000pt" viewBox="0 0 512.000000 440.000000"
 preserveAspectRatio="xMidYMid meet">
<metadata>
Created by potrace 1.16, written by Peter Selinger 2001-2019
</metadata>
<g transform="translate(0.000000,440.000000) scale(0.100000,-0.100000)"
fill="#000000" stroke="none">
<path d="M76 4384 c-3 -9 -6 -999 -6 -2200 l0 -2184 23 0 c12 0 93 52 187 120
91 65 190 136 220 156 30 21 57 41 60 44 3 4 48 37 100 73 52 37 149 105 215
153 66 47 128 90 137 95 15 8 16 -15 18 -303 0 -208 4 -316 12 -325 6 -8 33
-13 70 -13 55 0 63 3 124 50 36 27 75 55 87 61 12 7 24 15 27 19 3 4 118 87
255 185 138 98 267 191 288 207 20 15 55 42 76 58 22 17 42 30 45 30 2 0 2
-123 0 -272 -3 -150 -1 -286 4 -303 8 -29 11 -30 73 -33 61 -2 66 -1 123 40
32 24 97 71 145 105 47 35 91 66 96 71 6 4 114 82 240 172 212 151 353 253
415 299 14 11 131 95 261 188 130 92 362 258 514 368 153 110 294 211 314 225
40 28 160 116 176 128 6 4 51 36 100 72 50 35 113 80 140 100 82 60 281 202
347 247 34 24 83 61 110 84 42 35 48 45 48 80 0 48 -3 52 -160 164 -69 49
-129 93 -135 97 -16 13 -138 101 -162 118 -12 8 -102 73 -200 144 -98 71 -196
142 -218 158 -22 16 -67 49 -100 73 -75 56 -129 95 -380 275 -110 79 -202 146
-205 150 -3 4 -30 23 -60 43 -30 21 -87 61 -126 90 -39 28 -155 113 -258 187
-103 74 -209 151 -235 170 -166 121 -220 160 -276 200 -201 143 -329 235 -400
289 -85 65 -121 75 -160 45 -19 -14 -20 -30 -25 -316 l-5 -300 -53 38 c-28 22
-84 62 -122 89 -38 28 -87 63 -107 79 -21 15 -139 100 -263 189 -124 88 -246
178 -271 199 -37 30 -55 38 -86 38 -42 0 -71 -22 -78 -57 -2 -10 -4 -154 -4
-321 l-1 -303 -39 28 c-21 15 -116 84 -211 153 -95 69 -189 136 -209 149 -20
13 -72 51 -116 84 -117 88 -364 267 -369 267 -2 0 -7 -7 -10 -16z m1112 -127
c32 -24 161 -117 287 -207 127 -91 235 -168 240 -172 13 -11 68 -51 190 -139
55 -40 103 -77 107 -83 9 -13 11 -646 2 -646 -4 0 -193 133 -229 162 -5 4 -50
37 -100 73 -95 68 -186 134 -270 195 -27 20 -105 77 -172 125 l-123 89 0 323
c0 178 3 323 6 323 3 0 31 -20 62 -43z m1020 -30 c53 -40 205 -150 337 -245
132 -94 281 -201 330 -237 50 -37 113 -82 140 -101 28 -19 73 -52 101 -72 27
-20 113 -82 189 -137 76 -55 160 -116 186 -135 27 -19 133 -95 236 -169 103
-74 238 -171 298 -216 94 -70 304 -221 490 -353 27 -19 54 -39 60 -44 23 -18
186 -138 295 -216 63 -45 126 -90 138 -100 l24 -19 -47 -41 c-26 -23 -53 -42
-60 -42 -7 0 -18 -7 -26 -16 -11 -13 -154 -117 -313 -228 -38 -27 -152 -108
-256 -183 -25 -18 -63 -46 -85 -63 -22 -18 -85 -63 -140 -101 -55 -38 -105
-73 -111 -78 -7 -5 -73 -54 -149 -108 -75 -54 -159 -114 -185 -133 -27 -19
-75 -53 -107 -75 -32 -22 -59 -43 -61 -47 -2 -3 -33 -26 -70 -50 -37 -23 -73
-49 -81 -56 -7 -7 -40 -32 -73 -55 -33 -23 -90 -63 -126 -90 -37 -26 -78 -55
-92 -64 -14 -10 -29 -23 -33 -30 -4 -7 -12 -13 -18 -13 -5 0 -15 -5 -22 -11
-19 -16 -406 -292 -472 -336 -22 -14 -60 -43 -84 -65 -24 -21 -49 -38 -55 -38
-6 0 -29 -16 -51 -36 -22 -20 -53 -43 -70 -51 -16 -9 -35 -22 -43 -29 -7 -8
-33 -28 -58 -45 l-44 -30 2 303 3 303 150 107 c209 150 334 241 348 253 7 6
122 89 257 184 205 145 329 235 385 279 6 4 57 41 115 82 58 41 177 126 265
189 171 123 178 128 336 240 174 124 189 138 189 175 0 37 -22 60 -115 124
-33 23 -108 76 -166 119 -58 43 -119 87 -134 98 -102 73 -190 141 -193 147 -2
5 -7 8 -12 8 -5 0 -77 50 -162 110 -84 61 -178 129 -208 150 -30 22 -78 57
-107 77 -28 21 -80 59 -115 84 -223 161 -447 323 -468 339 -14 10 -70 51 -125
91 -55 40 -133 96 -172 126 l-73 53 0 295 c0 162 2 295 5 295 3 0 49 -33 103
-73z m12 -716 c3 -3 30 -23 60 -43 30 -21 78 -55 107 -75 28 -21 129 -94 225
-162 95 -69 223 -161 283 -206 61 -45 180 -132 265 -194 85 -62 164 -119 175
-127 11 -8 70 -49 130 -92 61 -42 119 -85 130 -95 11 -9 41 -32 67 -49 206
-144 367 -259 377 -271 9 -12 4 -22 -30 -51 -24 -20 -47 -36 -53 -36 -6 0 -33
-17 -58 -37 -65 -52 -132 -101 -194 -143 -29 -19 -114 -80 -189 -135 -76 -55
-164 -118 -195 -140 -32 -22 -70 -50 -86 -63 -28 -23 -43 -33 -154 -109 -30
-21 -64 -46 -75 -56 -11 -10 -42 -32 -70 -50 -27 -17 -52 -34 -55 -37 -3 -3
-45 -35 -95 -70 -49 -36 -110 -79 -135 -97 -25 -18 -70 -51 -100 -72 -30 -22
-91 -66 -135 -98 -44 -32 -106 -76 -137 -97 -32 -21 -65 -46 -75 -55 -21 -19
-87 -61 -97 -61 -9 0 -7 623 2 636 4 6 57 47 117 90 99 71 159 115 344 250 31
22 139 100 241 173 209 150 254 182 290 211 14 11 28 20 33 20 21 0 1 29 -41
57 -72 49 -176 125 -182 132 -3 4 -22 17 -43 30 -21 13 -43 29 -50 35 -12 13
-122 93 -233 171 -84 59 -256 184 -276 200 -9 7 -38 28 -65 47 -26 18 -69 49
-95 67 l-48 35 0 328 0 329 58 -42 c31 -24 59 -45 62 -48z m-205 -2490 c-7
-347 4 -305 -100 -377 -76 -52 -140 -97 -172 -121 -15 -12 -93 -68 -172 -125
-79 -57 -167 -120 -195 -140 -28 -20 -76 -54 -106 -75 -30 -21 -57 -40 -60
-43 -3 -3 -24 -20 -47 -38 l-43 -33 0 325 0 325 83 60 c45 34 87 65 92 69 6 5
82 59 170 122 88 62 210 150 270 195 241 180 268 197 278 179 5 -9 6 -141 2
-323z"/>
</g>
</svg>
