<svg height='100px' width='100px'  fill="#293240" xmlns="http://www.w3.org/2000/svg" xmlns:xlink="http://www.w3.org/1999/xlink" version="1.1" x="0px" y="0px" viewBox="0 0 66 66" enable-background="new 0 0 66 66" xml:space="preserve"><g><g><g><path d="M40.281,8.614c-4.686-4.697-12.306-4.697-17.002,0c-4.705,4.705-4.687,12.324,0,17c4.688,4.688,12.31,4.703,17,0     C44.915,20.991,45.033,13.367,40.281,8.614z M24.339,24.553c-4.079-4.072-4.136-10.741,0.001-14.879     c4.106-4.106,10.773-4.114,14.88,0c4.049,4.05,4.166,10.722-0.001,14.88C35.119,28.663,28.451,28.665,24.339,24.553z"></path></g><g><path d="M16.76,38.174c-4.224,0-7.66,3.441-7.66,7.67c0,4.229,3.437,7.67,7.66,7.67c4.229,0,7.67-3.441,7.67-7.67     C24.429,41.615,20.989,38.174,16.76,38.174z M16.76,52.014c-3.397,0-6.16-2.768-6.16-6.17c0-3.402,2.764-6.17,6.16-6.17     c3.402,0,6.17,2.768,6.17,6.17C22.929,49.247,20.162,52.014,16.76,52.014z"></path></g><g><path d="M27.83,52.048c0.498-0.886,0.883-1.814,1.147-2.769l2.451-0.427c0.358-0.063,0.621-0.374,0.621-0.739v-4.53     c0-0.363-0.261-0.675-0.618-0.738l-2.448-0.436c-0.273-0.963-0.659-1.892-1.153-2.77l1.434-2.045     c0.209-0.299,0.174-0.705-0.085-0.962l-3.21-3.2c-0.257-0.256-0.661-0.291-0.958-0.084l-2.046,1.426     c-0.875-0.49-1.8-0.871-2.761-1.137l-0.436-2.463c-0.063-0.358-0.374-0.62-0.738-0.62H14.5c-0.364,0-0.675,0.261-0.738,0.619     l-0.437,2.464c-0.971,0.268-1.896,0.649-2.763,1.137l-2.055-1.426c-0.299-0.207-0.701-0.171-0.958,0.086l-3.2,3.2     c-0.257,0.257-0.293,0.661-0.085,0.959l1.427,2.048c-0.5,0.898-0.885,1.826-1.148,2.769l-2.454,0.436     c-0.358,0.063-0.619,0.375-0.619,0.738v4.53c0,0.365,0.263,0.677,0.622,0.739l2.458,0.426c0.255,0.935,0.637,1.862,1.142,2.768     l-1.427,2.048c-0.208,0.298-0.172,0.701,0.084,0.958l3.2,3.21c0.258,0.259,0.662,0.292,0.961,0.086l2.054-1.434     c0.88,0.498,1.806,0.879,2.763,1.139l0.436,2.461c0.063,0.358,0.374,0.619,0.738,0.619h4.53c0.364,0,0.675-0.261,0.738-0.62     l0.436-2.46c0.946-0.258,1.871-0.64,2.76-1.14l2.045,1.434c0.298,0.208,0.703,0.174,0.961-0.084l3.21-3.21     c0.258-0.257,0.293-0.663,0.084-0.961L27.83,52.048z M25.354,56.758L23.43,55.41c-0.244-0.171-0.568-0.181-0.822-0.025     c-1.029,0.631-2.114,1.078-3.224,1.329c-0.295,0.066-0.521,0.303-0.573,0.601l-0.41,2.32h-3.272l-0.411-2.321     c-0.053-0.297-0.278-0.534-0.573-0.601c-1.126-0.255-2.209-0.701-3.22-1.327c-0.255-0.158-0.579-0.148-0.824,0.023l-1.934,1.35     l-2.313-2.32l1.342-1.926c0.17-0.243,0.18-0.563,0.026-0.816c-0.639-1.058-1.086-2.146-1.329-3.236     c-0.066-0.296-0.305-0.523-0.604-0.575l-2.318-0.402v-3.271l2.311-0.41c0.296-0.052,0.531-0.275,0.6-0.567     c0.259-1.106,0.71-2.197,1.342-3.243c0.153-0.253,0.144-0.573-0.026-0.816l-1.341-1.925l2.313-2.313l1.936,1.343     c0.247,0.17,0.568,0.179,0.822,0.021c0.987-0.611,2.072-1.057,3.226-1.327c0.292-0.068,0.516-0.304,0.567-0.6l0.411-2.321h3.272     l0.41,2.32c0.052,0.295,0.275,0.532,0.567,0.6c1.138,0.266,2.225,0.713,3.229,1.329c0.253,0.155,0.577,0.146,0.82-0.024     l1.925-1.342l2.32,2.313l-1.349,1.923c-0.172,0.245-0.182,0.568-0.025,0.823c0.62,1.011,1.075,2.103,1.352,3.244     c0.069,0.29,0.304,0.51,0.597,0.562l2.302,0.41v3.271l-2.309,0.402c-0.297,0.052-0.533,0.276-0.601,0.569     c-0.261,1.125-0.712,2.214-1.34,3.237c-0.156,0.254-0.146,0.578,0.025,0.823l1.349,1.924L25.354,56.758z"></path></g><g><path d="M43.033,49.002c-0.396-0.088-0.802-0.133-1.205-0.133c-2.587,0-4.787,1.765-5.35,4.289     c-0.324,1.427-0.072,2.896,0.712,4.137c0.785,1.242,2.005,2.102,3.437,2.421c0.396,0.088,0.8,0.133,1.201,0.133     c2.546,0,4.798-1.805,5.354-4.289c0.324-1.431,0.071-2.901-0.712-4.139C45.686,50.181,44.466,49.322,43.033,49.002z      M45.719,55.231c-0.404,1.807-2.04,3.118-3.891,3.118c-0.292,0-0.587-0.033-0.875-0.097c-1.038-0.233-1.925-0.857-2.495-1.759     c-0.568-0.901-0.752-1.967-0.516-3.006c0.408-1.836,2.007-3.119,3.886-3.119c0.294,0,0.589,0.033,0.878,0.097     c1.041,0.232,1.927,0.856,2.496,1.756C45.77,53.121,45.954,54.189,45.719,55.231z"></path></g><g><path d="M52.172,54.333l-1.433-0.605c-0.042-0.593-0.146-1.189-0.313-1.783l1.151-1.06c0.267-0.245,0.32-0.647,0.126-0.953     l-1.66-2.62c-0.195-0.307-0.58-0.429-0.917-0.293l-1.451,0.591c-0.461-0.4-0.955-0.747-1.476-1.034l0.068-1.57     c0.017-0.363-0.232-0.686-0.587-0.765l-3.02-0.67c-0.351-0.077-0.713,0.108-0.854,0.442l-0.605,1.44     c-0.603,0.041-1.199,0.143-1.783,0.305l-1.07-1.155c-0.245-0.266-0.646-0.317-0.952-0.123l-2.61,1.66     c-0.306,0.194-0.429,0.58-0.292,0.916l0.591,1.451c-0.4,0.462-0.749,0.959-1.041,1.486l-1.562-0.069     c-0.381-0.01-0.685,0.231-0.765,0.584l-0.681,3.021c-0.08,0.355,0.106,0.717,0.442,0.857l1.446,0.604     c0.037,0.59,0.14,1.186,0.307,1.782l-1.151,1.06c-0.267,0.245-0.319,0.646-0.127,0.952l1.65,2.62     c0.194,0.309,0.582,0.432,0.917,0.295l1.461-0.592c0.453,0.392,0.947,0.736,1.476,1.031l-0.068,1.563     c-0.017,0.363,0.23,0.685,0.584,0.765l3.021,0.68c0.056,0.013,0.11,0.019,0.165,0.019c0.296,0,0.571-0.176,0.69-0.458     l0.613-1.448c0.599-0.037,1.193-0.139,1.775-0.305l1.057,1.156c0.247,0.27,0.648,0.322,0.955,0.128l2.62-1.66     c0.307-0.194,0.43-0.581,0.293-0.917l-0.591-1.451c0.4-0.461,0.749-0.958,1.041-1.484l1.559,0.077     c0.396,0.013,0.69-0.23,0.769-0.587l0.67-3.03C52.69,54.833,52.505,54.474,52.172,54.333z M50.614,57.274l-1.407-0.069     c-0.328-0.015-0.583,0.153-0.713,0.424c-0.334,0.694-0.782,1.334-1.333,1.904c-0.207,0.214-0.268,0.529-0.155,0.804l0.533,1.31     l-1.56,0.988l-0.956-1.046c-0.202-0.222-0.519-0.301-0.802-0.202c-0.734,0.257-1.496,0.388-2.262,0.388     c-0.301,0-0.573,0.18-0.691,0.458l-0.556,1.313l-1.797-0.405l0.062-1.413c0.014-0.298-0.151-0.576-0.42-0.707     c-0.706-0.345-1.345-0.79-1.897-1.326c-0.213-0.206-0.526-0.268-0.804-0.156l-1.317,0.534l-0.983-1.56l1.04-0.958     c0.218-0.201,0.298-0.511,0.203-0.792c-0.259-0.769-0.391-1.536-0.391-2.28c0-0.303-0.182-0.576-0.461-0.692l-1.31-0.547     l0.404-1.794l1.413,0.063c0.295,0.016,0.579-0.154,0.709-0.424c0.334-0.694,0.782-1.334,1.333-1.904     c0.207-0.214,0.268-0.529,0.155-0.805l-0.534-1.31l1.555-0.988l0.965,1.042c0.199,0.217,0.512,0.296,0.789,0.201     c0.742-0.25,1.513-0.381,2.29-0.391c0.299-0.003,0.567-0.184,0.683-0.459l0.548-1.303l1.794,0.398l-0.063,1.421     c-0.014,0.301,0.155,0.581,0.428,0.71c0.683,0.324,1.318,0.768,1.89,1.321c0.214,0.206,0.528,0.267,0.805,0.156l1.309-0.534     l0.989,1.561l-1.039,0.956c-0.218,0.2-0.298,0.51-0.203,0.791c0.257,0.764,0.392,1.534,0.4,2.289     c0.003,0.298,0.184,0.566,0.458,0.683l1.295,0.547L50.614,57.274z"></path></g><g><path d="M62.909,40.423L50.91,28.424c-0.281-0.281-0.779-0.281-1.061,0l-1.184,1.184l-3.396-3.396     c4.265-6.325,3.609-15.009-1.98-20.608c-6.356-6.357-16.65-6.359-23.022,0.001c-6.341,6.352-6.34,16.678,0.001,23.021     c5.634,5.624,14.293,6.252,20.591,2.001l3.394,3.394l-1.184,1.184c-0.293,0.293-0.293,0.768,0,1.061l11.999,11.999     c2.164,2.165,5.673,2.167,7.84,0C65.071,46.102,65.071,42.585,62.909,40.423z M21.33,27.564c-5.757-5.757-5.757-15.133,0-20.899     C27.104,0.9,36.452,0.887,42.228,6.664c5.537,5.546,5.732,14.42,0.62,20.214l-1.333,1.333     C35.664,33.358,26.857,33.082,21.33,27.564z M44.392,27.456l3.213,3.212l-2.291,2.291l-3.213-3.212     C43.127,28.792,43.124,28.825,44.392,27.456z M61.848,47.203c-1.58,1.58-4.139,1.58-5.719,0L44.661,35.734l5.719-5.719     l11.469,11.469C63.426,43.06,63.426,45.626,61.848,47.203z"></path></g></g></g></svg>