<svg height='100px' width='100px'  fill="#293240" xmlns="http://www.w3.org/2000/svg" xmlns:xlink="http://www.w3.org/1999/xlink" version="1.1" x="0px" y="0px" viewBox="0 0 66 66" enable-background="new 0 0 66 66" xml:space="preserve"><g><g><g><path d="M64.378,27.412l-5.813-1.044c-0.618-2.375-1.561-4.641-2.805-6.748l3.39-4.85c0.209-0.298,0.173-0.704-0.085-0.961     l-6.891-6.87c-0.257-0.257-0.663-0.291-0.957-0.084l-4.853,3.373c-2.115-1.242-4.377-2.172-6.736-2.771l-1.035-5.838     C38.529,1.261,38.218,1,37.854,1h-9.729c-0.363,0-0.675,0.261-0.738,0.619l-1.035,5.838c-2.359,0.598-4.621,1.528-6.737,2.771     l-4.861-3.374c-0.3-0.207-0.7-0.17-0.958,0.086l-6.87,6.87c-0.257,0.257-0.293,0.662-0.084,0.96l3.391,4.852     c-1.25,2.127-2.192,4.392-2.806,6.747l-5.804,1.044c-0.358,0.064-0.617,0.375-0.617,0.738v9.73c0,0.364,0.262,0.675,0.62,0.739     l5.816,1.024c0.593,2.337,1.529,4.602,2.79,6.746L6.841,51.24c-0.209,0.298-0.173,0.703,0.084,0.959l6.87,6.88     c0.256,0.257,0.661,0.293,0.959,0.086l4.861-3.383c2.122,1.246,4.385,2.173,6.737,2.762l1.034,5.836     C27.45,64.739,27.762,65,28.125,65h9.729c0.363,0,0.675-0.261,0.738-0.619l1.034-5.836c2.353-0.588,4.614-1.516,6.737-2.761     l4.852,3.382c0.298,0.207,0.7,0.172,0.959-0.084l6.891-6.88c0.257-0.257,0.293-0.662,0.084-0.96l-3.39-4.85     c1.255-2.125,2.191-4.39,2.788-6.747l5.827-1.025c0.358-0.063,0.62-0.375,0.62-0.739v-9.73     C64.995,27.787,64.735,27.476,64.378,27.412z M63.495,37.25l-5.69,1c-0.296,0.052-0.532,0.276-0.601,0.569     c-0.588,2.53-1.589,4.955-2.977,7.206c-0.156,0.254-0.148,0.578,0.024,0.823l3.309,4.734l-6.001,5.992l-4.735-3.301     c-0.244-0.171-0.566-0.18-0.82-0.024c-2.249,1.377-4.67,2.369-7.196,2.948c-0.293,0.067-0.517,0.304-0.57,0.6L37.226,63.5h-8.472     l-1.011-5.701c-0.053-0.296-0.277-0.533-0.57-0.6c-2.526-0.579-4.947-1.571-7.196-2.948c-0.254-0.156-0.576-0.146-0.82,0.024     l-4.744,3.301L8.43,51.584l3.31-4.735c0.171-0.245,0.181-0.567,0.025-0.821c-1.396-2.277-2.397-4.703-2.979-7.208     c-0.068-0.293-0.305-0.517-0.601-0.569l-5.68-1v-8.474l5.663-1.018c0.293-0.053,0.526-0.274,0.597-0.563     c0.608-2.53,1.617-4.957,3-7.214c0.155-0.254,0.146-0.577-0.025-0.821l-3.31-4.735l5.982-5.982l4.745,3.293     c0.244,0.169,0.566,0.178,0.819,0.023c2.241-1.372,4.663-2.369,7.198-2.959c0.293-0.068,0.517-0.304,0.568-0.6L28.754,2.5h8.472     l1.011,5.701c0.052,0.296,0.275,0.531,0.568,0.6c2.535,0.591,4.957,1.587,7.198,2.959c0.253,0.155,0.575,0.146,0.819-0.024     l4.736-3.293l6.001,5.983l-3.309,4.734c-0.172,0.245-0.181,0.569-0.024,0.823c1.375,2.229,2.384,4.656,2.999,7.212     c0.07,0.289,0.304,0.51,0.597,0.563l5.673,1.019V37.25z"></path></g><g><path d="M32.995,10.49c-12.406,0-22.5,10.093-22.5,22.5c0,12.417,10.094,22.52,22.5,22.52c12.406,0,22.5-10.103,22.5-22.52     C55.495,20.583,45.401,10.49,32.995,10.49z M32.995,54.01c-11.579,0-21-9.43-21-21.02c0-11.58,9.421-21,21-21s21,9.42,21,21     C53.995,44.58,44.574,54.01,32.995,54.01z"></path></g><g><path d="M45.472,34.562c-1.245,0-2.287,0.843-2.616,1.984h-1.799v-4.47c0.954,0.004,1.285,0.005,1.346,0.005h0.006     c0.003,0,0.005,0,0.005,0c0.013,0,0.025,0,0.038-0.001c2.997-0.079,4.54-2.43,4.515-4.719c-0.023-2.138-1.416-4.3-4.078-4.585     c-0.558-1.87-2.283-3.276-4.199-3.358c-2.166-3.615-7.51-3.37-9.391,0.323c-2.486-0.981-5.412,0.345-6.19,3.037     c-2.31,0.278-4.105,2.252-4.105,4.637c0,2.225,1.581,4.15,3.76,4.576c0.047,0.009,0.094,0.014,0.142,0.014     c0.707,0.003,1.38,0.005,2.038,0.008v4.533h-1.799c-0.328-1.141-1.371-1.984-2.617-1.984c-1.507,0-2.733,1.226-2.733,2.734     c0,1.507,1.227,2.733,2.733,2.733c1.246,0,2.288-0.842,2.617-1.983h2.549c0.414,0,0.75-0.336,0.75-0.75v-5.277     c0.831,0.003,1.622,0.006,2.371,0.009v8.198c-1.141,0.328-1.983,1.37-1.983,2.616c0,1.507,1.226,2.734,2.733,2.734     c1.508,0,2.734-1.227,2.734-2.734c0-1.246-0.843-2.287-1.984-2.616v-8.192c2.138,0.008,3.91,0.015,5.372,0.021v8.171     c-1.141,0.328-1.983,1.37-1.983,2.616c0,1.507,1.227,2.734,2.733,2.734c1.508,0,2.734-1.227,2.734-2.734     c0-1.246-0.843-2.287-1.984-2.616V32.06c0.947,0.004,1.729,0.007,2.372,0.009v5.226c0,0.414,0.336,0.75,0.75,0.75h2.549     c0.329,1.141,1.371,1.983,2.616,1.983c1.507,0,2.733-1.226,2.733-2.733C48.205,35.788,46.979,34.562,45.472,34.562z      M20.527,38.529c-0.68,0-1.233-0.553-1.233-1.233c0-0.68,0.554-1.234,1.233-1.234c0.681,0,1.234,0.554,1.234,1.234     C21.762,37.975,21.208,38.529,20.527,38.529z M30.798,42.841c0,0.68-0.554,1.234-1.234,1.234c-0.68,0-1.233-0.554-1.233-1.234     c0-0.68,0.554-1.233,1.233-1.233C30.244,41.607,30.798,42.161,30.798,42.841z M37.67,42.841c0,0.68-0.554,1.234-1.234,1.234     c-0.68,0-1.233-0.554-1.233-1.234c0-0.68,0.554-1.233,1.233-1.233C37.116,41.607,37.67,42.161,37.67,42.841z M20.503,27.414     c0-1.748,1.421-3.171,3.214-3.171c0.37,0,0.685-0.27,0.741-0.636c0.271-1.765,1.791-2.688,3.153-2.688     c1.393,0,1.663,0.793,2.323,0.559c0.218-0.079,0.387-0.253,0.459-0.473c1.076-3.287,5.647-3.636,7.18-0.501     c0.137,0.277,0.419,0.44,0.736,0.418c1.305-0.119,2.963,0.931,3.232,2.686c0.056,0.366,0.413,0.636,0.783,0.636     c2.146,0,3.125,1.574,3.143,3.134c0.017,1.561-0.927,3.157-3.055,3.204l-0.305-0.001h-0.022c-0.004,0-0.007,0-0.011,0     c-1.085-0.004-5.251-0.021-19.09-0.075C21.543,30.19,20.503,28.901,20.503,27.414z M45.472,38.529     c-0.68,0-1.233-0.553-1.233-1.233c0-0.68,0.554-1.234,1.233-1.234c0.68,0,1.233,0.554,1.233,1.234     C46.705,37.975,46.151,38.529,45.472,38.529z"></path></g></g></g></svg>