<svg height='100px' width='100px'  fill="#293240" xmlns="http://www.w3.org/2000/svg" xmlns:xlink="http://www.w3.org/1999/xlink" version="1.1" x="0px" y="0px" viewBox="0 0 66 66" enable-background="new 0 0 66 66" xml:space="preserve"><g><g><g><path d="M54.944,54.685c-1.313,1.313-1.317,3.443-0.007,4.753c1.315,1.304,3.45,1.305,4.758-0.002     c1.313-1.313,1.313-3.448,0-4.761C58.391,53.371,56.255,53.372,54.944,54.685z M58.634,58.374c-0.724,0.724-1.909,0.723-2.639,0     c-0.722-0.722-0.718-1.902,0.01-2.629c0.727-0.727,1.905-0.733,2.629-0.01C59.361,56.462,59.361,57.647,58.634,58.374z"></path></g><g><path d="M63.084,53.584l-8.583-8.583c1.123-1.994,1.967-4.054,2.488-6.144l5.645-0.994c0.358-0.063,0.62-0.375,0.62-0.739v-9.45     c0-0.363-0.26-0.674-0.617-0.738l-5.631-1.014c-0.582-2.264-1.495-4.459-2.719-6.538l3.282-4.711     c0.208-0.298,0.172-0.704-0.086-0.96l-6.7-6.67c-0.257-0.254-0.66-0.291-0.957-0.085l-4.701,3.263     c-2.058-1.212-4.247-2.113-6.52-2.682l-1.014-5.667c-0.064-0.358-0.375-0.618-0.738-0.618h-9.45c-0.363,0-0.674,0.26-0.738,0.618     l-1.014,5.667c-2.269,0.569-4.461,1.469-6.529,2.683l-4.712-3.265c-0.297-0.205-0.7-0.17-0.957,0.086l-6.68,6.67     c-0.257,0.257-0.293,0.661-0.085,0.959l3.282,4.711c-1.224,2.079-2.137,4.274-2.719,6.538l-5.631,1.014     c-0.357,0.065-0.617,0.375-0.617,0.738v9.45c0,0.364,0.261,0.675,0.62,0.739l5.637,0.995c0.569,2.249,1.48,4.446,2.711,6.545     l-3.283,4.702c-0.208,0.298-0.172,0.702,0.084,0.959l6.68,6.69c0.257,0.258,0.661,0.292,0.959,0.085l4.713-3.283     c2.061,1.202,4.252,2.105,6.526,2.69l1.014,5.661c0.064,0.357,0.375,0.618,0.738,0.618h9.45c0.363,0,0.674-0.26,0.738-0.618     l1.014-5.661c2.277-0.586,4.466-1.489,6.517-2.69l1.488,1.036l7.232,7.232c2.542,2.542,6.673,2.579,9.25,0     C65.633,60.286,65.629,56.141,63.084,53.584z M37.782,55.905c-0.291,0.069-0.513,0.304-0.566,0.598l-0.989,5.523h-8.195     l-0.989-5.523c-0.053-0.294-0.275-0.529-0.566-0.598c-2.448-0.579-4.801-1.548-6.993-2.881c-0.254-0.155-0.575-0.144-0.818,0.025     l-4.594,3.201l-5.792-5.801l3.2-4.585c0.171-0.244,0.181-0.566,0.025-0.82c-1.367-2.238-2.343-4.596-2.899-7.007     c-0.068-0.293-0.304-0.518-0.601-0.57l-5.5-0.971v-8.193l5.493-0.989c0.294-0.053,0.529-0.275,0.597-0.566     c0.573-2.432,1.552-4.787,2.909-7c0.156-0.254,0.146-0.576-0.024-0.821l-3.201-4.594l5.793-5.784l4.595,3.184     c0.245,0.168,0.566,0.178,0.819,0.023c2.197-1.346,4.547-2.311,6.985-2.869c0.293-0.067,0.518-0.303,0.571-0.599l0.99-5.532     h8.194l0.99,5.532c0.053,0.296,0.278,0.532,0.571,0.599c2.443,0.559,4.79,1.524,6.974,2.868c0.253,0.156,0.576,0.148,0.821-0.023     l4.587-3.184l5.81,5.785l-3.2,4.594c-0.17,0.245-0.18,0.567-0.024,0.821c1.357,2.213,2.336,4.568,2.909,7     c0.068,0.291,0.303,0.513,0.597,0.566l5.493,0.989v8.193l-5.511,0.971c-0.297,0.053-0.535,0.279-0.601,0.574     c-0.449,1.988-1.2,3.958-2.235,5.868l-3.946-3.946c1.05-2.392,1.583-4.942,1.583-7.587c0-10.427-8.488-18.91-18.92-18.91     c-10.427,0-18.91,8.483-18.91,18.91c0,10.449,8.483,18.95,18.91,18.95c2.878,0,5.734-0.661,8.295-1.915l3.891,3.885     C42.26,54.488,40.066,55.365,37.782,55.905z M48.296,38.796l-3.685-3.685c0.335-1.193,0.499-2.403,0.499-3.601     c0-3.933-1.765-7.728-4.973-10.328c-3.022-2.451-6.976-3.431-10.844-2.684c-0.589,0.113-0.814,0.841-0.389,1.267l5.852,5.852     l-1.208,7.897l-7.664,0.99l-5.869-5.869c-0.427-0.43-1.155-0.196-1.267,0.389c-0.841,4.366,0.55,8.816,3.656,11.922     c3.407,3.407,8.334,4.692,12.956,3.405l3.933,3.933c-2.247,1.023-4.653,1.541-7.168,1.541c-9.6,0-17.41-7.828-17.41-17.45     c0-9.6,7.81-17.41,17.41-17.41c9.605,0,17.42,7.81,17.42,17.41C49.544,34.607,49.108,36.757,48.296,38.796z M62.034,61.764     c-1.988,1.988-5.169,1.961-7.129,0c-3.849-3.853-15.405-15.398-18.8-18.79c-0.197-0.197-0.49-0.269-0.755-0.185     c-4.213,1.325-8.767,0.213-11.885-2.905c-2.399-2.399-3.652-5.707-3.432-9.111l5.052,5.051c0.164,0.164,0.393,0.245,0.627,0.213     l8.59-1.11c0.332-0.042,0.595-0.3,0.645-0.63c1.458-9.557,1.359-8.84,1.359-8.943c0-0.197-0.078-0.389-0.22-0.53l-5.043-5.043     c2.95-0.201,5.854,0.704,8.15,2.566c2.851,2.31,4.417,5.68,4.417,9.171c0,1.191-0.183,2.396-0.56,3.579     c-0.023,0.075-0.035,0.151-0.035,0.227c0,0.196,0.077,0.388,0.22,0.531c3.419,3.419-3.463-3.463,18.789,18.789     C63.984,56.614,63.989,59.809,62.034,61.764z"></path></g></g></g></svg>